<svg width="54" height="54" viewBox="0 0 54 54" fill="none" xmlns="http://www.w3.org/2000/svg">
<circle cx="27" cy="27" r="27" fill="#FF6459"/>
<path d="M21.756 29.44H18.948V37H17.94V29.44H15.132V28.504H21.756V29.44ZM26.8946 37.216C26.2466 37.216 25.6506 37.104 25.1066 36.88C24.5706 36.656 24.1026 36.348 23.7026 35.956C23.3106 35.556 23.0026 35.084 22.7786 34.54C22.5626 33.988 22.4546 33.392 22.4546 32.752C22.4546 32.112 22.5626 31.52 22.7786 30.976C23.0026 30.424 23.3106 29.952 23.7026 29.56C24.1026 29.16 24.5706 28.848 25.1066 28.624C25.6506 28.4 26.2466 28.288 26.8946 28.288C27.5426 28.288 28.1346 28.4 28.6706 28.624C29.2146 28.848 29.6826 29.16 30.0746 29.56C30.4746 29.952 30.7826 30.424 30.9986 30.976C31.2226 31.52 31.3346 32.112 31.3346 32.752C31.3346 33.392 31.2226 33.988 30.9986 34.54C30.7826 35.084 30.4746 35.556 30.0746 35.956C29.6826 36.348 29.2146 36.656 28.6706 36.88C28.1346 37.104 27.5426 37.216 26.8946 37.216ZM26.8946 36.28C27.3906 36.28 27.8426 36.188 28.2506 36.004C28.6666 35.82 29.0226 35.568 29.3186 35.248C29.6146 34.928 29.8426 34.556 30.0026 34.132C30.1706 33.7 30.2546 33.24 30.2546 32.752C30.2546 32.264 30.1706 31.808 30.0026 31.384C29.8426 30.952 29.6146 30.576 29.3186 30.256C29.0226 29.936 28.6666 29.684 28.2506 29.5C27.8426 29.316 27.3906 29.224 26.8946 29.224C26.3986 29.224 25.9426 29.316 25.5266 29.5C25.1186 29.684 24.7666 29.936 24.4706 30.256C24.1746 30.576 23.9426 30.952 23.7746 31.384C23.6146 31.808 23.5346 32.264 23.5346 32.752C23.5346 33.24 23.6146 33.7 23.7746 34.132C23.9426 34.556 24.1746 34.928 24.4706 35.248C24.7666 35.568 25.1186 35.82 25.5266 36.004C25.9426 36.188 26.3986 36.28 26.8946 36.28ZM32.9544 28.504H35.4744C35.8664 28.504 36.2384 28.544 36.5904 28.624C36.9504 28.696 37.2664 28.824 37.5384 29.008C37.8184 29.184 38.0384 29.424 38.1984 29.728C38.3664 30.024 38.4504 30.392 38.4504 30.832C38.4504 31.296 38.3624 31.68 38.1864 31.984C38.0104 32.288 37.7824 32.528 37.5024 32.704C37.2304 32.88 36.9304 33.004 36.6024 33.076C36.2744 33.148 35.9624 33.184 35.6664 33.184H33.9624V37H32.9544V28.504ZM33.9624 32.248H35.6664C36.1704 32.248 36.5784 32.136 36.8904 31.912C37.2104 31.68 37.3704 31.324 37.3704 30.844C37.3704 30.364 37.2104 30.012 36.8904 29.788C36.5784 29.556 36.1704 29.44 35.6664 29.44H33.9624V32.248Z" fill="white"/>
<path d="M32.9598 22.5331L27.4824 13.0442L22.0035 22.5322" stroke="white" stroke-width="2" stroke-linecap="round" stroke-linejoin="round"/>
</svg>
